<svg width="559" height="88" viewBox="0 0 559 88" fill="none" xmlns="http://www.w3.org/2000/svg">
<path d="M145.539 13.5384H372.308V74.4615H145.539V13.5384Z" fill="#DAE4FF"/>
<path d="M533.446 66V23.0742H537.372V40.7145H537.462C538.255 38.8305 539.524 37.3332 541.269 36.2226C543.015 35.0922 545.117 34.527 547.576 34.527C549.817 34.527 551.77 35.0426 553.436 36.0739C555.122 37.0853 556.421 38.5231 557.333 40.3873C558.265 42.2515 558.731 44.4429 558.731 46.9615V66H554.834V47.5862C554.834 44.5321 554.071 42.1721 552.544 40.5063C551.037 38.8404 548.954 38.0075 546.297 38.0075C544.532 38.0075 542.975 38.4239 541.626 39.2569C540.278 40.0898 539.227 41.2401 538.473 42.7076C537.739 44.1553 537.372 45.841 537.372 47.7647V66H533.446Z" fill="#2B2B2B"/>
<path d="M514.989 66.5652C512.133 66.5652 509.644 65.9107 507.522 64.6019C505.42 63.2731 503.794 61.4089 502.643 59.0093C501.493 56.6097 500.918 53.7737 500.918 50.5015V50.4717C500.918 47.2193 501.493 44.4032 502.643 42.0234C503.813 39.6238 505.45 37.7695 507.552 36.4606C509.674 35.1517 512.133 34.4973 514.929 34.4973C517.349 34.4973 519.451 34.9633 521.236 35.8954C523.04 36.8275 524.478 38.0472 525.549 39.5544C526.64 41.0616 527.324 42.7076 527.602 44.4925L527.631 44.7602H523.794L523.734 44.4925C523.298 42.6878 522.326 41.1607 520.819 39.9113C519.332 38.6421 517.368 38.0075 514.929 38.0075C512.926 38.0075 511.171 38.5231 509.664 39.5544C508.176 40.5658 507.016 42.0135 506.183 43.8975C505.35 45.7617 504.934 47.9729 504.934 50.5312V50.561C504.934 53.1589 505.35 55.39 506.183 57.2542C507.016 59.1184 508.186 60.5562 509.694 61.5676C511.221 62.5592 512.986 63.055 514.989 63.055C517.309 63.055 519.223 62.46 520.73 61.2701C522.257 60.0604 523.258 58.4937 523.734 56.57L523.794 56.3023H527.661L527.602 56.5403C527.304 58.4639 526.58 60.1794 525.43 61.6866C524.3 63.1938 522.842 64.3837 521.057 65.2563C519.272 66.1289 517.249 66.5652 514.989 66.5652Z" fill="#2B2B2B"/>
<path d="M485.316 66V35.0625H489.243V40.6253H489.332C489.888 38.7214 490.82 37.2241 492.129 36.1334C493.457 35.0427 495.064 34.4973 496.948 34.4973C497.463 34.4973 497.939 34.5369 498.376 34.6163C498.812 34.6956 499.149 34.7749 499.387 34.8543V38.6917C499.129 38.5727 498.742 38.4735 498.227 38.3942C497.711 38.2951 497.106 38.2455 496.412 38.2455C494.965 38.2455 493.695 38.6025 492.605 39.3164C491.534 40.0105 490.701 41.0021 490.106 42.2912C489.531 43.5802 489.243 45.0973 489.243 46.8425V66H485.316Z" fill="#2B2B2B"/>
<path d="M463.704 66.5652C461.681 66.5652 459.897 66.1884 458.35 65.4348C456.803 64.6613 455.593 63.5904 454.721 62.222C453.868 60.8338 453.441 59.2374 453.441 57.4327V57.3732C453.441 55.6082 453.868 54.091 454.721 52.8218C455.593 51.5526 456.852 50.5511 458.498 49.8173C460.164 49.0637 462.177 48.6175 464.537 48.4787L476.139 47.735V50.799L465.013 51.5427C462.594 51.7211 460.72 52.3161 459.391 53.3275C458.082 54.3191 457.428 55.6677 457.428 57.3732V57.4327C457.428 59.1382 458.082 60.5165 459.391 61.5676C460.7 62.5988 462.395 63.1145 464.478 63.1145C466.302 63.1145 467.938 62.7377 469.386 61.9841C470.854 61.2106 472.014 60.1595 472.867 58.8308C473.739 57.5021 474.175 56.0147 474.175 54.3687V45.1767C474.175 42.9357 473.501 41.1806 472.153 39.9113C470.824 38.6421 468.95 38.0075 466.53 38.0075C464.289 38.0075 462.455 38.5132 461.027 39.5246C459.619 40.536 458.746 41.9243 458.409 43.6893L458.35 43.9868H454.572L454.602 43.6298C454.8 41.8449 455.405 40.2683 456.416 38.8999C457.428 37.5315 458.796 36.4606 460.521 35.6872C462.247 34.8939 464.27 34.4973 466.59 34.4973C468.95 34.4973 470.983 34.9237 472.688 35.7764C474.413 36.6094 475.742 37.7993 476.674 39.3461C477.626 40.893 478.102 42.7175 478.102 44.8197V66H474.175V60.3182H474.086C473.531 61.5676 472.728 62.6583 471.677 63.5904C470.626 64.5225 469.416 65.2563 468.047 65.7918C466.679 66.3074 465.231 66.5652 463.704 66.5652Z" fill="#2B2B2B"/>
<path d="M435.519 66.5652C432.624 66.5652 430.125 65.9207 428.023 64.6316C425.921 63.3227 424.295 61.4784 423.144 59.0985C422.014 56.6989 421.449 53.8729 421.449 50.6205V50.5907C421.449 47.3582 422.014 44.5321 423.144 42.1127C424.295 39.6932 425.901 37.8191 427.963 36.4904C430.026 35.1616 432.436 34.4973 435.192 34.4973C437.949 34.4973 440.329 35.1418 442.332 36.4309C444.354 37.7001 445.911 39.4949 447.002 41.8152C448.112 44.1355 448.668 46.8425 448.668 49.9363V51.4832H423.412V48.3597H446.764L444.771 51.1857V49.6983C444.771 47.1598 444.354 45.0279 443.521 43.3026C442.708 41.5574 441.578 40.2386 440.13 39.3461C438.702 38.4537 437.046 38.0075 435.162 38.0075C433.278 38.0075 431.603 38.4636 430.135 39.3759C428.667 40.2881 427.507 41.6268 426.655 43.3918C425.822 45.137 425.405 47.2392 425.405 49.6983V51.1857C425.405 53.7043 425.822 55.8461 426.655 57.6112C427.507 59.3762 428.697 60.7247 430.224 61.6568C431.751 62.5889 433.546 63.055 435.609 63.055C437.116 63.055 438.464 62.8269 439.654 62.3708C440.844 61.8948 441.836 61.2305 442.629 60.3777C443.422 59.5249 443.987 58.5333 444.325 57.4029L444.414 57.1352H448.281L448.222 57.4327C447.944 58.7416 447.438 59.9612 446.704 61.0916C445.99 62.2022 445.078 63.174 443.968 64.0069C442.857 64.82 441.588 65.4546 440.16 65.9107C438.732 66.347 437.185 66.5652 435.519 66.5652Z" fill="#2B2B2B"/>
<path d="M401.624 66.6841C398.589 66.6841 395.912 66.1983 393.592 65.2265C391.291 64.2547 389.457 62.8764 388.088 61.0916C386.74 59.3067 385.976 57.2145 385.798 54.8148L385.768 54.3984H389.814L389.873 54.8148C390.072 56.4609 390.686 57.8987 391.718 59.1282C392.749 60.338 394.127 61.28 395.853 61.9543C397.578 62.6087 399.571 62.9359 401.832 62.9359C404.073 62.9359 406.016 62.6087 407.662 61.9543C409.328 61.28 410.617 60.3281 411.529 59.0985C412.462 57.8491 412.928 56.4014 412.928 54.7553V54.7256C412.928 52.6234 412.204 50.9476 410.756 49.6982C409.308 48.429 406.929 47.4176 403.617 46.664L398.917 45.6228C394.772 44.6709 391.718 43.2728 389.754 41.4284C387.811 39.5642 386.839 37.1051 386.839 34.051V34.0213C386.859 31.7406 387.493 29.7277 388.743 27.9825C389.992 26.2373 391.718 24.8689 393.919 23.8773C396.12 22.8857 398.629 22.39 401.445 22.39C404.221 22.39 406.691 22.8957 408.852 23.9071C411.014 24.8987 412.739 26.2869 414.028 28.0717C415.337 29.8368 416.071 31.8993 416.23 34.2592L416.259 34.6757H412.214L412.184 34.289C411.966 32.6033 411.381 31.1556 410.429 29.9458C409.497 28.7361 408.257 27.804 406.71 27.1496C405.163 26.4753 403.379 26.1382 401.356 26.1382C399.293 26.1382 397.479 26.4654 395.912 27.1198C394.345 27.7743 393.126 28.6865 392.253 29.8566C391.4 31.0068 390.974 32.3554 390.974 33.9023V33.9618C390.974 35.9449 391.698 37.5711 393.145 38.8404C394.593 40.0898 396.874 41.0714 399.987 41.7854L404.688 42.8266C407.623 43.481 409.993 44.3238 411.797 45.3551C413.622 46.3665 414.95 47.6258 415.783 49.133C416.616 50.6403 417.033 52.4449 417.033 54.5471V54.5769C417.033 57.036 416.398 59.1778 415.129 61.0023C413.88 62.807 412.095 64.2052 409.774 65.1967C407.474 66.1883 404.757 66.6841 401.624 66.6841Z" fill="#2B2B2B"/>
<path d="M354.177 66.5652C351.38 66.5454 348.921 65.8909 346.799 64.6019C344.677 63.293 343.021 61.4387 341.831 59.0391C340.661 56.6394 340.076 53.8035 340.076 50.5312V50.4717C340.076 47.1995 340.661 44.3735 341.831 41.9937C343.021 39.594 344.677 37.7497 346.799 36.4606C348.921 35.1517 351.37 34.4973 354.147 34.4973C356.963 34.4973 359.422 35.1517 361.524 36.4606C363.646 37.7497 365.302 39.5841 366.492 41.9639C367.682 44.3437 368.277 47.1797 368.277 50.4717V50.5312C368.277 53.8233 367.682 56.6692 366.492 59.0688C365.302 61.4486 363.656 63.293 361.554 64.6019C359.452 65.9107 356.993 66.5652 354.177 66.5652ZM354.206 63.055C356.229 63.055 357.994 62.5592 359.501 61.5676C361.009 60.576 362.179 59.1382 363.012 57.2542C363.845 55.3702 364.261 53.1292 364.261 50.5312V50.4717C364.261 47.854 363.845 45.613 363.012 43.7488C362.179 41.8846 360.999 40.4666 359.472 39.4949C357.964 38.5033 356.189 38.0075 354.147 38.0075C352.144 38.0075 350.389 38.5033 348.881 39.4949C347.374 40.4865 346.194 41.9144 345.341 43.7785C344.509 45.6427 344.092 47.8738 344.092 50.4717V50.5312C344.092 53.1292 344.509 55.3702 345.341 57.2542C346.194 59.1382 347.374 60.576 348.881 61.5676C350.389 62.5592 352.164 63.055 354.206 63.055Z" fill="#2B2B2B"/>
<path d="M333.993 66.5651C331.455 66.5651 329.551 65.9404 328.282 64.691C327.033 63.4218 326.408 61.4386 326.408 58.7415V38.3644H321.856V35.0624H326.408V26.7034H330.454V35.0624H336.552V38.3644H330.454V58.682C330.454 60.3875 330.81 61.5775 331.524 62.2517C332.258 62.926 333.349 63.2631 334.797 63.2631C335.134 63.2631 335.451 63.2532 335.749 63.2334C336.066 63.1937 336.334 63.164 336.552 63.1442V66.3272C336.254 66.3866 335.868 66.4362 335.392 66.4759C334.935 66.5354 334.469 66.5651 333.993 66.5651Z" fill="#2B2B2B"/>
<path d="M302.968 66.5651C300.43 66.5651 298.526 65.9404 297.257 64.691C296.007 63.4218 295.382 61.4386 295.382 58.7415V38.3644H290.831V35.0624H295.382V26.7034H299.428V35.0624H305.526V38.3644H299.428V58.682C299.428 60.3875 299.785 61.5775 300.499 62.2517C301.233 62.926 302.324 63.2631 303.771 63.2631C304.108 63.2631 304.426 63.2532 304.723 63.2334C305.04 63.1937 305.308 63.164 305.526 63.1442V66.3272C305.229 66.3866 304.842 66.4362 304.366 66.4759C303.91 66.5354 303.444 66.5651 302.968 66.5651Z" fill="#2B2B2B"/>
<path d="M275.556 66.5652C272.7 66.5652 270.211 65.9107 268.089 64.6019C265.987 63.2731 264.361 61.4089 263.211 59.0093C262.06 56.6097 261.485 53.7737 261.485 50.5015V50.4717C261.485 47.2193 262.06 44.4032 263.211 42.0234C264.381 39.6238 266.017 37.7695 268.119 36.4606C270.241 35.1517 272.7 34.4973 275.496 34.4973C277.916 34.4973 280.018 34.9633 281.803 35.8954C283.608 36.8275 285.045 38.0472 286.116 39.5544C287.207 41.0616 287.891 42.7076 288.169 44.4925L288.199 44.7602H284.361L284.302 44.4925C283.865 42.6878 282.894 41.1607 281.386 39.9113C279.899 38.6421 277.936 38.0075 275.496 38.0075C273.493 38.0075 271.738 38.5231 270.231 39.5544C268.744 40.5658 267.584 42.0135 266.751 43.8975C265.918 45.7617 265.501 47.9729 265.501 50.5312V50.561C265.501 53.1589 265.918 55.39 266.751 57.2542C267.584 59.1184 268.754 60.5562 270.261 61.5676C271.788 62.5592 273.553 63.055 275.556 63.055C277.876 63.055 279.79 62.46 281.297 61.2701C282.824 60.0604 283.826 58.4937 284.302 56.57L284.361 56.3023H288.228L288.169 56.5403C287.871 58.4639 287.148 60.1794 285.997 61.6866C284.867 63.1938 283.409 64.3837 281.624 65.2563C279.84 66.1289 277.817 66.5652 275.556 66.5652Z" fill="#2B2B2B"/>
<path d="M244.01 66.5652C241.114 66.5652 238.615 65.9207 236.513 64.6316C234.411 63.3227 232.785 61.4784 231.635 59.0985C230.504 56.6989 229.939 53.8729 229.939 50.6205V50.5907C229.939 47.3582 230.504 44.5321 231.635 42.1127C232.785 39.6932 234.391 37.8191 236.454 36.4904C238.516 35.1616 240.926 34.4973 243.682 34.4973C246.439 34.4973 248.819 35.1418 250.822 36.4309C252.845 37.7001 254.401 39.4949 255.492 41.8152C256.603 44.1355 257.158 46.8425 257.158 49.9363V51.4832H231.902V48.3597H255.254L253.261 51.1857V49.6983C253.261 47.1598 252.845 45.0279 252.012 43.3026C251.199 41.5574 250.068 40.2386 248.62 39.3461C247.193 38.4537 245.537 38.0075 243.653 38.0075C241.769 38.0075 240.093 38.4636 238.625 39.3759C237.158 40.2881 235.998 41.6268 235.145 43.3918C234.312 45.137 233.895 47.2392 233.895 49.6983V51.1857C233.895 53.7043 234.312 55.8461 235.145 57.6112C235.998 59.3762 237.187 60.7247 238.715 61.6568C240.242 62.5889 242.036 63.055 244.099 63.055C245.606 63.055 246.955 62.8269 248.144 62.3708C249.334 61.8948 250.326 61.2305 251.119 60.3777C251.913 59.5249 252.478 58.5333 252.815 57.4029L252.904 57.1352H256.771L256.712 57.4327C256.434 58.7416 255.928 59.9612 255.195 61.0916C254.481 62.2022 253.568 63.174 252.458 64.0069C251.347 64.82 250.078 65.4546 248.65 65.9107C247.222 66.347 245.675 66.5652 244.01 66.5652Z" fill="#2B2B2B"/>
<path d="M219.9 66V23.0742H223.827V66H219.9Z" fill="#2B2B2B"/>
<path d="M200.608 66.5652C197.713 66.5652 195.214 65.9207 193.112 64.6316C191.01 63.3227 189.383 61.4784 188.233 59.0985C187.103 56.6989 186.538 53.8729 186.538 50.6205V50.5907C186.538 47.3582 187.103 44.5321 188.233 42.1127C189.383 39.6932 190.99 37.8191 193.052 36.4904C195.115 35.1616 197.524 34.4973 200.281 34.4973C203.038 34.4973 205.417 35.1418 207.42 36.4309C209.443 37.7001 211 39.4949 212.091 41.8152C213.201 44.1355 213.757 46.8425 213.757 49.9363V51.4832H188.501V48.3597H211.853L209.86 51.1857V49.6983C209.86 47.1598 209.443 45.0279 208.61 43.3026C207.797 41.5574 206.667 40.2386 205.219 39.3461C203.791 38.4537 202.135 38.0075 200.251 38.0075C198.367 38.0075 196.691 38.4636 195.224 39.3759C193.756 40.2881 192.596 41.6268 191.743 43.3918C190.91 45.137 190.494 47.2392 190.494 49.6983V51.1857C190.494 53.7043 190.91 55.8461 191.743 57.6112C192.596 59.3762 193.786 60.7247 195.313 61.6568C196.84 62.5889 198.635 63.055 200.697 63.055C202.205 63.055 203.553 62.8269 204.743 62.3708C205.933 61.8948 206.925 61.2305 207.718 60.3777C208.511 59.5249 209.076 58.5333 209.413 57.4029L209.503 57.1352H213.37L213.31 57.4327C213.033 58.7416 212.527 59.9612 211.793 61.0916C211.079 62.2022 210.167 63.174 209.057 64.0069C207.946 64.82 206.677 65.4546 205.249 65.9107C203.821 66.347 202.274 66.5652 200.608 66.5652Z" fill="#2B2B2B"/>
<path d="M166.712 66.6842C163.678 66.6842 161 66.1983 158.68 65.2265C156.38 64.2548 154.545 62.8765 153.177 61.0916C151.828 59.3068 151.065 57.2145 150.886 54.8149L150.856 54.3984H154.902L154.962 54.8149C155.16 56.4609 155.775 57.8987 156.806 59.1283C157.837 60.338 159.216 61.28 160.941 61.9543C162.666 62.6087 164.659 62.936 166.92 62.936C169.161 62.936 171.105 62.6087 172.751 61.9543C174.417 61.28 175.706 60.3281 176.618 59.0985C177.55 57.8491 178.016 56.4014 178.016 54.7554V54.7256C178.016 52.6235 177.292 50.9477 175.844 49.6983C174.397 48.429 172.017 47.4176 168.705 46.664L164.005 45.6229C159.86 44.6709 156.806 43.2728 154.843 41.4284C152.899 39.5643 151.927 37.1051 151.927 34.051V34.0213C151.947 31.7406 152.582 29.7277 153.831 27.9825C155.081 26.2373 156.806 24.869 159.007 23.8774C161.209 22.8858 163.717 22.39 166.533 22.39C169.31 22.39 171.779 22.8957 173.941 23.9071C176.102 24.8987 177.828 26.2869 179.117 28.0718C180.426 29.8368 181.159 31.8993 181.318 34.2593L181.348 34.6757H177.302L177.272 34.289C177.054 32.6033 176.469 31.1556 175.517 29.9459C174.585 28.7361 173.346 27.804 171.799 27.1496C170.252 26.4753 168.467 26.1382 166.444 26.1382C164.382 26.1382 162.567 26.4654 161 27.1199C159.434 27.7743 158.214 28.6866 157.341 29.8566C156.489 31.0069 156.062 32.3554 156.062 33.9023V33.9618C156.062 35.945 156.786 37.5712 158.234 38.8404C159.682 40.0898 161.962 41.0715 165.076 41.7854L169.776 42.8266C172.711 43.481 175.081 44.3239 176.886 45.3551C178.71 46.3665 180.039 47.6259 180.872 49.1331C181.705 50.6403 182.121 52.445 182.121 54.5471V54.5769C182.121 57.036 181.487 59.1778 180.217 61.0024C178.968 62.8071 177.183 64.2052 174.863 65.1968C172.562 66.1884 169.845 66.6842 166.712 66.6842Z" fill="#2B2B2B"/>
<path d="M145.539 13.5384H148.923V74.4615H145.539V13.5384Z" fill="#457AFD"/>
<path d="M152.308 10.1538C152.308 12.9577 150.035 15.2307 147.231 15.2307C144.427 15.2307 142.154 12.9577 142.154 10.1538C142.154 7.34992 144.427 5.0769 147.231 5.0769C150.035 5.0769 152.308 7.34992 152.308 10.1538Z" fill="#457AFD"/>
<path d="M370.616 13.5384H374V74.4615H370.616V13.5384Z" fill="#457AFD"/>
<path d="M377.385 77.8462C377.385 80.6501 375.112 82.9231 372.308 82.9231C369.504 82.9231 367.231 80.6501 367.231 77.8462C367.231 75.0423 369.504 72.7692 372.308 72.7692C375.112 72.7692 377.385 75.0423 377.385 77.8462Z" fill="#457AFD"/>
<path d="M49.9231 59.7469C41.3069 59.7469 34.3221 52.7194 34.3221 44.0506C34.3221 35.3819 41.3069 28.3544 49.9231 28.3544C58.5392 28.3544 65.5241 35.3819 65.5241 44.0506C65.5241 52.7194 58.5392 59.7469 49.9231 59.7469ZM98.2094 38.8316C99.3007 40.4797 99.8462 42.1278 99.8462 44.0506C99.8462 45.9734 99.3007 47.8962 98.2094 49.2696L83.2052 76.738C81.8412 79.4848 78.022 79.4848 76.385 77.0127L68.4738 64.6519C67.6553 63.2785 67.9283 61.3557 69.0195 59.9823C73.3843 54.7633 75.5668 47.8962 74.4755 40.2051C72.8388 29.7671 64.3818 20.9772 54.0151 19.3291C36.5556 16.3076 21.8243 31.9646 25.6436 49.819C27.2804 57.5101 33.2821 64.3772 40.6479 67.3987C46.3766 69.8709 51.8328 69.8709 56.7433 68.4975C58.1073 67.9481 60.0168 68.7721 60.8353 70.1456L68.201 81.957C69.8378 84.4291 67.9283 88 64.9273 88H28.0989C24.5523 88 21.5515 86.0772 19.9147 83.0557L1.63682 49.2696C0.545608 47.8962 0 45.9734 0 44.0506C0 42.1278 0.545608 40.4797 1.63682 38.8316L19.9147 5.04556C21.5515 2.02404 24.5523 0.101257 28.0989 0.101257H71.7475C75.294 0.101257 78.2947 2.02404 79.9315 5.04556L98.2094 38.8316Z" fill="#141414"/>
<path d="M36.8771 64.8566C31.1763 61.3874 26.7644 55.5723 25.4026 49.1823C21.6192 31.5201 36.2121 16.0318 53.5075 19.0208C57.0177 19.578 60.3069 20.9607 63.1807 22.9518L76.4743 1.75441C74.96 0.63753 73.1073 0 71.0734 0H27.8349C24.3216 0 21.349 1.90208 19.7276 4.89106L1.62145 38.3133C0.540482 39.9436 0 41.574 0 43.4761C0 45.3781 0.540482 47.2802 1.62145 48.6388L19.7276 82.0611C20.6466 83.7552 21.9997 85.1002 23.6394 85.9476L36.8771 64.8566Z" fill="#457AFD"/>
</svg>
